<svg width="120" height="29" xmlns="http://www.w3.org/2000/svg" viewBox="0 0 560.75 135.47"><defs><style>.cls-1{fill:#0f206c;}.cls-2{fill:#fff;}</style></defs><polygon class="cls-1" points="25.86 0 0 108 116.56 108 109.98 135.47 424.02 135.47 430.6 108 534.89 108 560.75 0 25.86 0"/><polygon class="cls-2" points="30.57 5.97 7.57 102.03 124.13 102.03 117.55 129.5 419.32 129.5 425.9 102.03 530.18 102.03 553.19 5.97 30.57 5.97"/><polygon class="cls-1" points="547.51 10.45 34.11 10.45 13.24 97.55 129.8 97.55 123.22 125.02 415.78 125.02 422.37 97.55 526.65 97.55 547.51 10.45"/><path class="cls-2" d="M406.56,106.9c.13-.6-.12-.92-.72-.92h-7.09a1.07,1.07,0,0,0-1.12.92l-.41,1.84c-.14.6.15.79.71.92l8,1.09c2,.46,3.52,1.73,3,3.9l-.78,3.53a4.83,4.83,0,0,1-4.71,3.85H394.2c-2.28,0-3.5-1.58-3-3.85l.55-2.5h3.8l-.39,1.74c-.13.59.12.92.72.92h7.41a1.08,1.08,0,0,0,1.13-.92l.46-2.06c.13-.6-.15-.79-.71-.92l-8-1.09c-2-.46-3.52-1.73-3-3.9l.74-3.31a4.82,4.82,0,0,1,4.71-3.85h8.93c2.28,0,3.51,1.57,3,3.85l-.51,2.28h-3.8Z" transform="translate(-6.06 -5.54)"/><path class="cls-2" d="M355.6,106l-3.54,15.89h-3.91L351.69,106h-7l.81-3.63h18l-.81,3.63Z" transform="translate(-6.06 -5.54)"/><path class="cls-2" d="M168.53,106.9c.14-.6-.12-.92-.71-.92h-7.09a1.07,1.07,0,0,0-1.13.92l-.41,1.84c-.13.6.15.79.72.92l8,1.09c2,.46,3.52,1.73,3,3.9l-.79,3.53a4.83,4.83,0,0,1-4.71,3.85h-9.25c-2.28,0-3.51-1.58-3-3.85l.56-2.5h3.79l-.38,1.74c-.14.59.12.92.71.92h7.42a1.09,1.09,0,0,0,1.13-.92l.46-2.06c.13-.6-.16-.79-.72-.92l-8-1.09c-2-.46-3.52-1.73-3-3.9l.73-3.31a4.82,4.82,0,0,1,4.71-3.85h8.93c2.28,0,3.51,1.57,3,3.85l-.51,2.28H168.2Z" transform="translate(-6.06 -5.54)"/><path class="cls-2" d="M217.76,102.4c2.28,0,3.51,1.57,3,3.85l-1.1,4.93a4.83,4.83,0,0,1-4.72,3.85h-9.25l-1.54,6.89h-3.9l4.35-19.52Zm-3,8.95a1.08,1.08,0,0,0,1.13-.93l.76-3.41c.13-.6-.12-.92-.72-.92h-8.28l-1.17,5.26Z" transform="translate(-6.06 -5.54)"/><path class="cls-2" d="M265.73,102.29c2.27,0,3.5,1.57,3,3.85l-2.68,12a4.83,4.83,0,0,1-4.71,3.85h-9.72c-2.28,0-3.5-1.58-3-3.85l2.68-12a4.82,4.82,0,0,1,4.71-3.85Zm-1.09,4.61c.14-.6-.11-.92-.71-.92h-7.77a1.08,1.08,0,0,0-1.13.92l-2.34,10.52c-.13.59.12.92.72.92h7.76a1.08,1.08,0,0,0,1.13-.92Z" transform="translate(-6.06 -5.54)"/><path class="cls-2" d="M309.85,121.92l-1.54-7.24H302l-1.62,7.24h-3.91l4.36-19.52H314c2.28,0,3.51,1.57,3,3.85l-1,4.58a4.85,4.85,0,0,1-3.48,3.69l1.6,7.4Zm3-14.91c.13-.6-.12-.92-.72-.92H303.9l-1.1,5h8.25a1.09,1.09,0,0,0,1.13-.92Z" transform="translate(-6.06 -5.54)"/><polygon class="cls-2" points="166.41 23.23 163.43 36.16 170.95 36.16 168.51 46.56 142.02 46.56 147.57 23.23 126 23.23 122.84 36.16 130.27 36.16 121.88 70.95 114.55 70.95 111.43 83.95 132.97 83.95 138.88 59.65 165.37 59.65 162.66 70.95 154.98 70.95 151.81 83.95 174.11 83.95 188.79 23.23 166.41 23.23"/><path class="cls-2" d="M64.11,53.19l2.38-9.59c.32-1.49.94-2,2.3-2H97.45c1.65,0,1.8.5,1.48,2l-.23.79,16.12-4.25s.06-.35.08-.52c1.06-7.46-2.25-10.85-10.3-10.85H68.52c-9.21,0-14.31,4-16.76,13.64l-3.55,15Z" transform="translate(-6.06 -5.54)"/><path class="cls-2" d="M92.34,72.5l-.47,2c-.42,1.49-1,2-2.49,2h-29c-1.55,0-1.71-.5-1.29-2l2.62-11.39L47.83,58.8,43.62,75.71c-2.43,9.43.68,13.78,9.69,13.78H89.2c8.88,0,14-3.88,16.58-12.78C105.84,76.48,92.34,72.5,92.34,72.5Z" transform="translate(-6.06 -5.54)"/><polygon class="cls-2" points="326.34 53.3 315.52 23.23 291.5 23.23 288.37 36.13 295.64 36.13 287.25 70.95 280.08 70.95 276.94 83.95 297.65 83.95 307.04 44.71 316.84 72.06 328.54 72.06 351.96 44.63 345.67 70.95 338.5 70.95 335.44 83.95 356.56 83.95 371.15 23.23 351.96 23.23 326.34 53.3"/><path class="cls-2" d="M442.61,28.77H392.09L389,41.58h7.43l-8.52,34.91h-7.17l-3.23,13h21.73l4.91-19H432.7c8.11,0,12.48-3.8,14.51-11.9l4-18C453.18,32.57,450.38,28.77,442.61,28.77Zm-6.24,14.52-2.8,12.54a1.74,1.74,0,0,1-2,1.64h-24.4l3.55-15.82h24.49C436.58,41.65,436.72,42,436.37,43.29Z" transform="translate(-6.06 -5.54)"/><path class="cls-2" d="M519.54,28.77H480.46c-8,0-12.38,3.72-14.41,11.91l-2.42,9.91c-1.83,7.76,1.57,10.35,9,12.16l32.72,4c1.67.43,1.9.86,1.53,2.41l-1.3,5.65c-.34,1.21-.8,1.64-2,1.64H474.16c-1.37,0-1.51-.43-1.25-1.64L473,73l-15.76,4.24c-2,8,.77,12.25,8.54,12.25H505.6c8,0,12.47-4.15,14.42-12.25l2.63-10.61c1.92-7.76-1.66-10.35-9-12.16l-32.78-3.88c-1.76-.43-2-1-1.62-2.5l1.3-4.89c.26-1.3.8-1.64,1.91-1.64h29.64c1.19,0,1.42.34,1.08,1.64l-.29,1.42,15.31-3.94C530.11,32.57,527.3,28.77,519.54,28.77Z" transform="translate(-6.06 -5.54)"/><path class="cls-2" d="M226.65,28.77l-3.17,12.89L231,41.6,204.89,76.49H197.5l-3.15,13H210.4l14.26-18.93H252l1.55,5.93h-7.19l-3.19,13H271L257.47,28.77Zm7.7,28.78,11.43-15.33,3.54,15.33Z" transform="translate(-6.06 -5.54)"/><path class="cls-2" d="M69.84,58.13" transform="translate(-6.06 -5.54)"/></svg>